<svg height="512pt" viewBox="-79 0 512 512" width="512pt" xmlns="http://www.w3.org/2000/svg"><path d="m285 451h-270c-8.285156 0-15 6.714844-15 15v31c0 8.289062 6.710938 15 15 15h270c8.289062 0 15-6.710938 15-15v-31c0-8.285156-6.714844-15-15-15zm0 0"/><path d="m340.019531 142.574219-97.675781-87.1875 11.894531-35.640625c1.523438-4.570313.761719-9.609375-2.078125-13.523438-2.8125-3.910156-7.324218-6.222656-12.160156-6.222656-34.308594 0-62.167969 15.132812-82.734375 45.160156-88.300781 3.589844-140.535156 69.375-155.332031 195.691406-.496094 4.394532-.820313 7.617188-.613282 7.628907-2.550781 5.671875-1.320312 12.320312 3.046876 16.714843l4.304687 4.203126c9.359375 8.960937 17.144531 17.605468 20.070313 61.601562h241.257812v-13.140625c0-25.632813-16.257812-49.515625-40.457031-57.921875-61.058594-32.796875-29.445313-8.632812-105.148438-84.332031-5.859375-5.859375-5.859375-15.351563 0-21.210938s15.351563-5.859375 21.210938 0c11.796875 11.796875 51.652343 55.640625 67.484375 60.164063l.371094.105468c13.511718 3.859376 27.875 2.886719 40.753906-2.738281.195312-.085937.386718-.167969.582031-.253906l10.253906 5.125c33.75 16.859375 67.234375 1.230469 81.621094-22.089844 11.921875-19.277343 8.847656-40.5625-6.652344-52.132812zm-145.019531-7.574219c-8.285156 0-15-6.714844-15-15s6.714844-15 15-15 15 6.714844 15 15-6.714844 15-15 15zm0 0"/><path d="m270 361h-240c-16.570312 0-30 13.429688-30 30 0 16.566406 13.429688 30 30 30h240c16.570312 0 30-13.433594 30-30 0-16.570312-13.429688-30-30-30zm0 0"/></svg>